<svg width="875" height="861" viewBox="0 0 875 861" fill="none" xmlns="http://www.w3.org/2000/svg">
<path d="M330.717 17.1366C332.597 16.2033 334.507 15.3266 336.447 14.5066C395.447 -10.7134 458.617 28.6666 519.207 28.1466C575.137 27.6666 628.447 -0.993408 684.327 0.0265916C700.967 0.326592 718.167 3.5366 731.797 13.4366C746.617 24.1866 755.567 41.4866 768.097 55.0066C797.177 86.4066 846.587 99.1466 861.317 139.897C872.937 172.017 857.317 206.957 844.997 238.797C823.887 293.307 811.927 354.717 829.127 410.687C841.447 450.757 868.057 485.967 873.707 527.607C878.707 564.187 866.707 601.657 849.447 633.607C826.517 676.057 826.697 724.607 815.447 770.457C808.107 800.457 793.177 830.747 766.197 845.747C741.957 859.227 713.497 857.797 686.717 859.277C659.037 860.817 632.527 862.197 604.717 858.977C557.827 853.527 511.717 842.187 464.577 838.867C378.577 832.867 293.087 853.717 206.997 858.167C159.507 860.617 109.137 857.167 69.4066 830.167C35.5166 807.087 13.0066 768.407 4.40658 727.337C-4.19342 686.267 0.446586 643.007 12.6766 602.947C27.5966 554.177 54.1166 506.367 48.4766 455.537C44.9366 423.667 28.9766 394.897 19.8766 364.237C7.37658 322.157 8.36658 275.037 26.9666 235.437C37.9654 211.853 55.3175 191.8 77.0766 177.527C101.947 161.467 129.907 164.947 157.077 154.657C227.447 128.047 264.567 49.6266 330.717 17.1366Z" fill="#52C7B8"/>
<path d="M779.847 387.457H762.847C760.122 376.546 755.795 366.099 750.007 356.457L762.007 344.457C763.924 342.537 765 339.935 765 337.222C765 334.509 763.924 331.906 762.007 329.987L737.207 305.187C735.287 303.27 732.685 302.193 729.972 302.193C727.259 302.193 724.657 303.27 722.737 305.187L710.737 317.187C701.097 311.391 690.65 307.061 679.737 304.337V287.337C679.734 285.989 679.466 284.656 678.947 283.412C678.428 282.169 677.669 281.04 676.713 280.091C675.757 279.142 674.623 278.39 673.376 277.88C672.13 277.369 670.794 277.11 669.447 277.117H634.447C631.733 277.119 629.131 278.199 627.213 280.119C625.294 282.039 624.217 284.642 624.217 287.357V304.357C613.304 307.081 602.857 311.411 593.217 317.207L581.217 305.207C579.297 303.29 576.695 302.213 573.982 302.213C571.269 302.213 568.667 303.29 566.747 305.207L541.947 330.007C540.03 331.926 538.953 334.529 538.953 337.242C538.953 339.955 540.03 342.557 541.947 344.477L553.947 356.477C548.159 366.119 543.832 376.566 541.107 387.477H524.107C521.394 387.477 518.792 388.554 516.873 390.473C514.955 392.391 513.877 394.993 513.877 397.707V432.777C513.877 435.49 514.955 438.092 516.873 440.01C518.792 441.929 521.394 443.007 524.107 443.007H541.107C543.831 453.918 548.158 464.365 553.947 474.007L541.947 486.057C540.03 487.976 538.953 490.579 538.953 493.292C538.953 496.005 540.03 498.607 541.947 500.527L566.747 525.317C567.696 526.268 568.824 527.023 570.065 527.538C571.307 528.053 572.638 528.318 573.982 528.318C575.326 528.318 576.657 528.053 577.898 527.538C579.14 527.023 580.268 526.268 581.217 525.317L593.217 513.317C602.857 519.109 613.305 523.436 624.217 526.157V543.157C624.22 545.868 625.299 548.467 627.217 550.384C629.135 552.3 631.736 553.377 634.447 553.377H669.447C672.16 553.377 674.762 552.299 676.681 550.38C678.599 548.462 679.677 545.86 679.677 543.147V526.147C690.589 523.426 701.037 519.098 710.677 513.307L722.677 525.307C723.626 526.258 724.754 527.013 725.995 527.528C727.237 528.043 728.568 528.308 729.912 528.308C731.256 528.308 732.587 528.043 733.828 527.528C735.07 527.013 736.198 526.258 737.147 525.307L761.947 500.517C763.864 498.597 764.94 495.995 764.94 493.282C764.94 490.569 763.864 487.967 761.947 486.047L749.947 473.997C755.736 464.355 760.063 453.908 762.787 442.997H779.787C782.5 442.997 785.102 441.919 787.021 440C788.939 438.082 790.017 435.48 790.017 432.767V397.717C790.025 395.009 788.959 392.408 787.052 390.485C785.146 388.561 782.555 387.472 779.847 387.457ZM651.947 484.457C638.266 484.457 624.893 480.4 613.518 472.799C602.143 465.199 593.278 454.396 588.042 441.757C582.807 429.118 581.437 415.21 584.106 401.792C586.775 388.375 593.363 376.05 603.036 366.376C612.71 356.702 625.035 350.115 638.453 347.446C651.87 344.777 665.778 346.147 678.417 351.382C691.056 356.617 701.859 365.483 709.46 376.858C717.06 388.233 721.117 401.606 721.117 415.287C721.117 433.632 713.829 451.225 700.858 464.197C687.886 477.169 670.292 484.457 651.947 484.457V484.457Z" fill="#00675B"/>
<path d="M421.707 356.697H409.027C406.99 348.57 403.761 340.789 399.447 333.607L408.447 324.607C409.155 323.899 409.717 323.059 410.1 322.134C410.483 321.209 410.68 320.218 410.68 319.217C410.68 318.215 410.483 317.224 410.1 316.299C409.717 315.374 409.155 314.534 408.447 313.827L389.977 295.357C388.546 293.929 386.608 293.127 384.587 293.127C382.566 293.127 380.627 293.929 379.197 295.357L370.197 304.357C363.018 300.038 355.236 296.812 347.107 294.787V282.107C347.107 280.086 346.304 278.147 344.875 276.718C343.446 275.289 341.508 274.487 339.487 274.487H313.377C311.356 274.487 309.417 275.289 307.988 276.718C306.559 278.147 305.757 280.086 305.757 282.107V294.797C297.629 296.823 289.848 300.045 282.667 304.357L273.667 295.357C272.236 293.929 270.298 293.127 268.277 293.127C266.256 293.127 264.317 293.929 262.887 295.357L244.447 313.857C243.738 314.564 243.177 315.404 242.793 316.329C242.41 317.254 242.213 318.245 242.213 319.247C242.213 320.248 242.41 321.239 242.793 322.164C243.177 323.089 243.738 323.929 244.447 324.637L253.447 333.637C249.135 340.819 245.911 348.6 243.877 356.727H231.167C229.144 356.729 227.205 357.534 225.774 358.964C224.344 360.395 223.539 362.334 223.537 364.357V390.457C223.539 392.478 224.344 394.417 225.775 395.845C227.206 397.274 229.145 398.077 231.167 398.077H243.847C245.887 406.202 249.122 413.981 253.447 421.157L244.447 430.157C243.738 430.864 243.177 431.704 242.793 432.629C242.41 433.554 242.213 434.545 242.213 435.547C242.213 436.548 242.41 437.539 242.793 438.464C243.177 439.389 243.738 440.229 244.447 440.937L262.917 459.407C263.624 460.115 264.465 460.676 265.389 461.06C266.314 461.443 267.305 461.64 268.307 461.64C269.308 461.64 270.299 461.443 271.224 461.06C272.149 460.676 272.989 460.115 273.697 459.407L282.697 450.407C289.878 454.721 297.659 457.946 305.787 459.977V472.657C305.787 474.678 306.589 476.616 308.018 478.045C309.447 479.474 311.386 480.277 313.407 480.277H339.527C341.548 480.277 343.486 479.474 344.915 478.045C346.344 476.616 347.147 474.678 347.147 472.657V459.977C355.261 457.959 363.032 454.751 370.207 450.457L379.207 459.457C379.914 460.165 380.755 460.726 381.679 461.11C382.604 461.493 383.596 461.69 384.597 461.69C385.598 461.69 386.589 461.493 387.514 461.11C388.439 460.726 389.279 460.165 389.987 459.457L408.447 440.907C409.155 440.199 409.717 439.359 410.1 438.434C410.483 437.509 410.68 436.518 410.68 435.517C410.68 434.515 410.483 433.524 410.1 432.599C409.717 431.674 409.155 430.834 408.447 430.127L399.447 421.127C403.761 413.946 406.986 406.164 409.017 398.037H421.697C423.718 398.037 425.658 397.234 427.088 395.805C428.519 394.377 429.324 392.438 429.327 390.417V364.327C429.324 362.306 428.521 360.368 427.092 358.938C425.664 357.508 423.728 356.702 421.707 356.697V356.697ZM326.447 428.907C316.255 428.907 306.291 425.884 297.817 420.221C289.343 414.559 282.738 406.51 278.838 397.094C274.938 387.677 273.918 377.316 275.908 367.32C277.897 357.324 282.805 348.142 290.013 340.936C297.221 333.73 306.403 328.823 316.4 326.835C326.396 324.848 336.758 325.87 346.173 329.772C355.589 333.674 363.636 340.28 369.297 348.755C374.958 357.231 377.979 367.194 377.977 377.387C377.974 391.051 372.544 404.156 362.88 413.817C353.217 423.479 340.111 428.907 326.447 428.907V428.907Z" fill="#009688"/>
<path d="M202.587 527.647C201.513 524.447 200.383 521.32 199.197 518.267L202.587 527.647Z" fill="#F4D37E"/>
<path d="M199.077 545.727L199.147 518.147C193.97 504.814 187.488 492.025 179.797 479.967C172.667 487.517 170.367 510.967 170.367 510.967C171.037 486.767 173.627 479.527 173.877 471.607C163.447 457.937 147.447 450.547 134.807 442.457C139.867 471.227 139.477 478.457 139.477 478.457C137.817 461.227 132.177 449.307 129.327 439.077C97.1666 420.137 80.5166 425.077 80.5166 425.077C80.8266 437.227 84.7866 464.177 85.9866 474.577C99.5666 486.137 118.387 497.577 118.387 497.577C108.637 494.447 95.8666 486.887 86.8066 481.047C88.8666 496.047 88.6866 493.617 92.5466 505.517C106.077 517.877 133.547 532.027 133.547 532.027C121.627 529.137 104.977 520.157 95.8866 514.927C103.078 533.608 113.613 550.823 126.977 565.727C136.474 569.84 146.173 573.472 156.037 576.607C149.167 576.207 140.547 574.157 132.577 571.827C147.577 587.557 165.287 601.547 184.857 617.237L204.637 625.237L210.857 595.677C213.717 572.127 209.557 548.577 202.677 527.907L199.077 545.727Z" fill="#F4D37E"/>
<path d="M183.447 574.347C187.177 581.347 190.757 588.527 193.967 595.877C197.283 603.245 199.901 610.909 201.787 618.767L201.437 618.867C199.334 611.146 196.505 603.643 192.987 596.457C189.587 589.257 185.827 582.277 181.897 575.457C174.087 561.707 165.657 548.387 157.187 535.097C148.717 521.807 139.927 508.737 131.977 494.997C127.977 488.137 124.107 481.207 120.437 474.117C116.767 467.027 113.297 459.817 110.207 452.397L110.517 452.207C118.397 465.977 126.607 479.417 134.927 492.807C143.247 506.197 151.307 519.807 159.527 533.297C167.747 546.787 175.867 560.327 183.447 574.347Z" fill="#FEF3F9"/>
<path d="M157.627 619.137C157.867 589.977 159.757 577.697 157.627 568.067C141.754 556.452 123.9 547.824 104.937 542.607C119.837 575.307 116.147 598.407 116.147 598.407C115.357 574.757 103.877 551.867 97.3167 540.637C52.8167 530.007 13.8467 537.197 13.8467 537.197C17.9467 551.707 22.3067 564.897 26.9267 576.947C46.8067 585.727 72.9267 592.357 72.9267 592.357C60.2367 592.287 42.5567 588.007 29.8567 584.407C36.141 600.085 43.8605 615.149 52.9167 629.407C72.9867 639.167 110.367 645.807 110.367 645.807C95.1367 646.807 72.3667 642.327 59.8167 639.467C74.1443 659.175 92.1398 675.935 112.817 688.827C125.535 690.189 138.316 690.893 151.107 690.937C142.727 693.047 131.727 693.847 121.427 694.047C144.327 707.297 169.887 717.437 198.227 728.917L224.447 731.107L222.877 693.207C215.607 636.367 193.997 599.577 167.287 575.917C161.057 587.677 157.627 619.137 157.627 619.137Z" fill="#009688"/>
<path d="M218.637 724.636C213.774 716.153 208.079 708.174 201.637 700.816C195.347 693.436 188.637 686.466 181.857 679.696C168.247 666.106 154.027 653.267 139.767 640.477C125.507 627.687 110.927 615.296 97.157 601.766C90.267 595.016 83.4569 588.156 76.8769 581.016C70.2969 573.876 63.877 566.506 57.877 558.756L58.197 558.406C71.897 571.986 85.887 585.056 99.997 598.016C114.107 610.976 127.997 624.286 141.997 637.436C155.997 650.586 169.997 663.866 183.337 677.886C189.987 684.886 196.477 692.176 202.587 699.816C208.859 707.447 214.359 715.681 219.007 724.396L218.637 724.636Z" fill="#7862EC"/>
<path d="M731.277 619.807C733.517 617.847 735.673 615.847 737.747 613.807L731.277 619.807Z" fill="#A796FF"/>
<path d="M715.167 622.136L737.837 613.756C746.963 604.855 755.106 594.998 762.127 584.357C753.347 580.147 733.277 585.216 733.277 585.216C753.387 578.416 760.277 578.566 766.857 576.366C774.257 562.606 774.517 545.726 776.597 531.686C754.827 545.126 748.727 546.996 748.727 546.996C762.267 540.196 769.997 531.386 777.367 525.646C781.217 490.416 771.097 476.646 771.097 476.646C761.227 480.646 740.547 492.536 732.447 496.816C727.897 512.816 725.357 533.506 725.357 533.506C724.357 523.626 725.947 509.626 727.447 499.506C715.847 505.996 717.807 505.076 709.447 512.246C704.217 528.416 702.587 557.886 702.587 557.886C700.587 546.096 701.937 528.106 702.927 518.186C690.038 530.743 679.716 545.687 672.537 562.186C672.537 576.966 674.167 592.107 674.167 592.107C672.007 585.697 670.547 577.186 669.567 569.176C662.117 587.746 657.067 608.177 651.297 630.917L651.897 651.477L678.447 648.216C698.817 643.626 716.637 632.607 731.107 619.977L715.167 622.136Z" fill="#009688"/>
<path d="M685.977 616.567C681.557 622.137 676.977 627.567 672.127 632.787C667.319 638.053 661.973 642.802 656.177 646.957L655.967 646.667C661.587 642.359 666.739 637.472 671.337 632.087C676.007 626.767 680.337 621.187 684.577 615.497C693.027 604.137 700.897 592.347 708.727 580.497C716.557 568.647 724.087 556.657 732.447 545.177C736.637 539.437 740.907 533.747 745.387 528.177C749.867 522.607 754.527 517.257 759.497 512.177L759.767 512.407C751.327 523.837 743.287 535.407 735.317 547.177C727.347 558.947 719.147 570.457 711.047 582.117C702.947 593.777 694.737 605.367 685.977 616.567Z" fill="#7862EC"/>
<path d="M694.767 572.587C693.733 574.467 692.643 576.347 691.497 578.227L694.767 572.587ZM691.397 578.387C683.917 590.477 673.727 602.167 660.317 609.867L642.317 618.037L637.397 603.627C636.517 586.307 635.617 570.737 636.827 555.977C639.092 561.294 641.858 566.383 645.087 571.177C645.087 571.177 640.627 560.837 637.397 550.377C638.87 537.138 642.905 524.313 649.277 512.617C650.747 519.847 653.747 532.857 657.707 540.767C657.707 540.767 652.427 519.567 652.587 506.997C656.937 500.087 655.747 501.177 662.587 494.047C663.727 501.507 665.677 511.747 668.527 518.517C668.527 518.517 665.797 503.307 665.527 491.027C670.317 486.227 682.347 473.307 688.447 468.317C688.447 468.317 698.607 475.807 703.577 501.567C699.627 507.227 696.087 515.147 687.997 522.917C687.997 522.917 691.897 520.267 704.357 506.007C705.957 516.387 709.457 528.377 707.237 539.727C703.047 542.727 698.147 544.117 685.417 553.327C685.417 553.327 698.507 545.327 705.637 546.407C702.996 555.47 699.389 564.224 694.877 572.517L680.677 583.397L691.397 578.387ZM668.947 555.987C672.127 545.987 675.457 535.987 678.507 525.987C681.557 515.987 684.727 505.987 688.197 496.057L687.957 495.957C685.557 500.647 683.427 505.477 681.477 510.367C679.527 515.257 677.737 520.207 676.027 525.187C672.607 535.137 669.927 545.307 666.957 555.377C663.987 565.447 661.017 575.507 657.527 585.377C655.787 590.317 653.927 595.217 651.787 599.997C649.708 604.807 647.134 609.389 644.107 613.667L644.307 613.827C647.497 609.622 650.242 605.098 652.497 600.327C654.807 595.587 656.837 590.727 658.747 585.827C662.497 575.997 665.737 565.987 668.947 555.987Z" fill="#FC8E53"/>
<path d="M708.917 678.586C728.197 684.836 735.917 688.797 742.787 689.237C754.317 679.786 764.157 668.444 771.887 655.696C746.757 659.856 732.287 652.326 732.287 652.326C748.157 656.666 765.997 652.986 774.967 650.496C785.56 631.582 792.876 611.012 796.607 589.656C786.037 589.656 776.277 590.116 767.217 591.016C756.777 603.836 746.317 621.737 746.317 621.737C749.317 612.387 756.247 600.246 761.577 591.636C749.627 593.027 737.841 595.579 726.387 599.256C715.267 612.016 702.187 638.186 702.187 638.186C705.037 626.746 713.307 610.886 718.117 602.246C701.429 608.888 686.157 618.645 673.117 630.996C667.307 644.426 662.837 658.786 662.837 658.786C663.387 652.166 665.407 643.886 667.657 636.256C653.567 650.366 640.907 667.096 626.717 685.596L619.177 704.516L644.677 711.256C684.057 717.756 713.467 709.507 735.357 694.737C728.987 687.677 708.917 678.586 708.917 678.586Z" fill="#F4D37E"/>
<path d="M624.797 701.556C631.62 699.709 638.237 697.173 644.547 693.987C650.897 690.877 657.067 687.416 663.137 683.806C675.307 676.606 687.137 668.806 698.907 660.956C710.677 653.106 722.297 644.957 734.467 637.607C740.537 633.937 746.677 630.347 752.937 626.987C759.197 623.627 765.557 620.446 772.097 617.656L772.247 617.956C760.067 625.226 748.157 632.816 736.247 640.516C724.337 648.216 712.377 655.656 700.447 663.256C688.517 670.856 676.447 678.356 664.037 685.256C657.817 688.696 651.507 691.976 645.037 694.886C638.591 697.901 631.852 700.247 624.927 701.886L624.797 701.556Z" fill="#FDEAB1"/>
<path d="M224.387 416.756H651.007C654.083 416.753 657.131 417.355 659.974 418.53C662.818 419.705 665.402 421.428 667.579 423.603C669.756 425.777 671.483 428.359 672.662 431.201C673.84 434.043 674.447 437.09 674.447 440.166V714.626H200.977V440.166C200.977 433.958 203.443 428.003 207.833 423.613C212.223 419.223 218.178 416.756 224.387 416.756V416.756Z" fill="#1769AA"/>
<path d="M651.947 438.567H223.447V688.907H651.947V438.567Z" fill="#2196F3"/>
<path d="M761.287 788.086H114.117L200.977 714.626H674.417L761.287 788.086Z" fill="#2196F3"/>
<path d="M114.117 788.087H761.287V792.907C761.287 799.036 758.852 804.914 754.518 809.248C750.184 813.582 744.306 816.017 738.177 816.017H137.227C131.098 816.017 125.219 813.582 120.885 809.248C116.552 804.914 114.117 799.036 114.117 792.907V788.087V788.087Z" fill="#1769AA"/>
<path d="M262.627 734.457H236.447C236.265 734.458 236.087 734.405 235.937 734.304C235.786 734.202 235.669 734.058 235.602 733.889C235.535 733.72 235.521 733.535 235.561 733.358C235.601 733.181 235.694 733.02 235.827 732.897L244.007 725.157C244.174 724.999 244.397 724.912 244.627 724.917H269.627C269.8 724.917 269.97 724.967 270.116 725.062C270.262 725.156 270.377 725.291 270.448 725.45C270.519 725.608 270.542 725.784 270.515 725.955C270.488 726.127 270.413 726.287 270.297 726.417L263.297 734.157C263.213 734.251 263.11 734.327 262.994 734.379C262.879 734.431 262.753 734.457 262.627 734.457Z" fill="#FEF3F9"/>
<path d="M304.127 734.456H277.657C277.485 734.457 277.317 734.408 277.172 734.316C277.027 734.224 276.912 734.092 276.839 733.937C276.767 733.781 276.74 733.608 276.763 733.438C276.785 733.268 276.856 733.108 276.967 732.977L283.457 725.237C283.541 725.136 283.647 725.055 283.766 725C283.885 724.945 284.015 724.916 284.147 724.917H309.447C309.611 724.917 309.771 724.962 309.911 725.047C310.052 725.132 310.166 725.253 310.242 725.398C310.318 725.543 310.353 725.706 310.344 725.87C310.334 726.034 310.28 726.191 310.187 726.326L304.867 734.066C304.783 734.185 304.672 734.283 304.544 734.35C304.415 734.418 304.272 734.455 304.127 734.456V734.456Z" fill="#FEF3F9"/>
<path d="M345.597 734.457H318.917C318.756 734.455 318.599 734.411 318.461 734.329C318.323 734.247 318.21 734.13 318.131 733.99C318.053 733.85 318.014 733.692 318.016 733.531C318.019 733.371 318.064 733.214 318.147 733.077L322.957 725.337C323.037 725.207 323.149 725.101 323.282 725.028C323.415 724.954 323.565 724.916 323.717 724.917H349.227C349.379 724.915 349.528 724.952 349.662 725.024C349.795 725.097 349.908 725.202 349.989 725.331C350.07 725.459 350.117 725.606 350.126 725.757C350.134 725.909 350.103 726.06 350.037 726.197L346.447 733.977C346.366 734.13 346.243 734.257 346.093 734.342C345.942 734.427 345.77 734.467 345.597 734.457V734.457Z" fill="#FEF3F9"/>
<path d="M387.027 734.457H360.197C360.05 734.455 359.905 734.418 359.775 734.349C359.645 734.279 359.534 734.179 359.452 734.057C359.369 733.935 359.317 733.795 359.301 733.648C359.284 733.502 359.303 733.354 359.357 733.217L362.477 725.477C362.545 725.31 362.661 725.167 362.811 725.068C362.961 724.968 363.137 724.915 363.317 724.917H388.977C389.114 724.917 389.248 724.948 389.371 725.009C389.494 725.069 389.601 725.156 389.685 725.264C389.769 725.372 389.827 725.498 389.855 725.632C389.883 725.766 389.88 725.904 389.847 726.037L387.907 733.777C387.858 733.972 387.744 734.145 387.584 734.269C387.425 734.392 387.229 734.458 387.027 734.457V734.457Z" fill="#FEF3F9"/>
<path d="M428.447 734.457H401.517C401.385 734.457 401.254 734.429 401.134 734.373C401.014 734.318 400.908 734.236 400.823 734.135C400.738 734.034 400.676 733.915 400.643 733.788C400.609 733.66 400.603 733.527 400.627 733.397L402.057 725.647C402.096 725.44 402.207 725.254 402.37 725.121C402.532 724.987 402.736 724.915 402.947 724.917H428.687C428.807 724.916 428.927 724.941 429.038 724.988C429.149 725.035 429.25 725.104 429.334 725.191C429.418 725.277 429.484 725.38 429.527 725.493C429.57 725.606 429.591 725.726 429.587 725.847L429.327 733.587C429.319 733.817 429.224 734.035 429.06 734.197C428.896 734.359 428.677 734.452 428.447 734.457Z" fill="#FEF3F9"/>
<path d="M469.787 734.456H442.867C442.634 734.454 442.411 734.363 442.243 734.201C442.076 734.039 441.977 733.819 441.967 733.586L441.717 725.846C441.713 725.726 441.733 725.606 441.777 725.493C441.82 725.38 441.886 725.277 441.97 725.191C442.054 725.104 442.154 725.035 442.265 724.988C442.377 724.941 442.496 724.916 442.617 724.917H468.357C468.567 724.917 468.77 724.99 468.932 725.123C469.094 725.256 469.205 725.441 469.247 725.646L470.667 733.396C470.692 733.526 470.688 733.659 470.655 733.787C470.623 733.915 470.562 734.034 470.478 734.135C470.394 734.236 470.288 734.318 470.169 734.373C470.049 734.429 469.919 734.457 469.787 734.456Z" fill="#FEF3F9"/>
<path d="M511.097 734.457H484.267C484.067 734.456 483.873 734.389 483.715 734.266C483.558 734.142 483.446 733.97 483.397 733.777L481.397 726.037C481.363 725.903 481.361 725.764 481.389 725.629C481.418 725.495 481.477 725.369 481.562 725.26C481.647 725.152 481.756 725.065 481.879 725.005C482.003 724.946 482.139 724.915 482.277 724.917H507.937C508.116 724.914 508.291 724.967 508.439 725.067C508.588 725.167 508.702 725.31 508.767 725.477L511.887 733.217C511.942 733.35 511.963 733.494 511.95 733.638C511.938 733.781 511.89 733.92 511.813 734.041C511.736 734.163 511.63 734.264 511.506 734.336C511.381 734.408 511.241 734.45 511.097 734.457V734.457Z" fill="#FEF3F9"/>
<path d="M552.387 734.456H525.707C525.534 734.457 525.366 734.409 525.22 734.317C525.075 734.224 524.959 734.092 524.887 733.936L521.257 726.196C521.192 726.059 521.164 725.908 521.174 725.756C521.185 725.605 521.233 725.459 521.315 725.331C521.396 725.203 521.509 725.098 521.642 725.026C521.776 724.953 521.925 724.916 522.077 724.917H547.577C547.73 724.917 547.88 724.955 548.015 725.029C548.149 725.102 548.263 725.208 548.347 725.336L553.147 733.076C553.232 733.213 553.28 733.369 553.285 733.53C553.29 733.691 553.251 733.85 553.174 733.991C553.096 734.132 552.982 734.249 552.844 734.331C552.705 734.413 552.547 734.456 552.387 734.456V734.456Z" fill="#FEF3F9"/>
<path d="M593.637 734.457H567.177C567.031 734.457 566.887 734.422 566.758 734.354C566.629 734.286 566.519 734.187 566.437 734.067L561.117 726.327C561.024 726.192 560.97 726.034 560.96 725.87C560.95 725.707 560.985 725.544 561.062 725.398C561.138 725.253 561.252 725.132 561.392 725.047C561.532 724.962 561.693 724.917 561.857 724.917H587.147C587.279 724.914 587.409 724.942 587.529 724.997C587.648 725.053 587.754 725.135 587.837 725.237L594.327 732.977C594.438 733.108 594.508 733.268 594.531 733.438C594.554 733.608 594.527 733.781 594.454 733.937C594.382 734.092 594.266 734.224 594.122 734.316C593.977 734.408 593.809 734.457 593.637 734.457V734.457Z" fill="#FEF3F9"/>
<path d="M634.877 734.457H608.667C608.54 734.455 608.416 734.427 608.301 734.375C608.186 734.324 608.082 734.249 607.997 734.157L600.997 726.417C600.876 726.289 600.796 726.128 600.767 725.955C600.738 725.782 600.76 725.604 600.832 725.443C600.903 725.283 601.021 725.147 601.169 725.054C601.318 724.96 601.491 724.912 601.667 724.917H626.667C626.896 724.913 627.119 724.999 627.287 725.157L635.467 732.897C635.593 733.02 635.681 733.178 635.719 733.351C635.758 733.524 635.745 733.704 635.682 733.87C635.619 734.035 635.51 734.179 635.367 734.283C635.224 734.387 635.053 734.448 634.877 734.457Z" fill="#FEF3F9"/>
<path d="M249.537 748.957H221.147C220.965 748.961 220.786 748.91 220.634 748.81C220.482 748.71 220.365 748.566 220.297 748.397C220.23 748.229 220.215 748.043 220.256 747.866C220.297 747.689 220.392 747.528 220.527 747.407L230.247 738.207C230.414 738.047 230.636 737.957 230.867 737.957H257.867C258.04 737.959 258.21 738.012 258.355 738.107C258.499 738.203 258.614 738.339 258.684 738.497C258.755 738.656 258.778 738.832 258.752 739.004C258.726 739.175 258.651 739.336 258.537 739.467L250.207 748.667C250.121 748.759 250.018 748.833 249.902 748.883C249.787 748.932 249.662 748.958 249.537 748.957V748.957Z" fill="#FEF3F9"/>
<path d="M294.187 748.957H265.527C265.355 748.957 265.187 748.908 265.042 748.816C264.897 748.724 264.782 748.592 264.709 748.437C264.637 748.281 264.61 748.108 264.633 747.938C264.655 747.768 264.726 747.608 264.837 747.477L272.557 738.277C272.641 738.176 272.747 738.095 272.866 738.04C272.986 737.985 273.115 737.956 273.247 737.957H300.507C300.671 737.957 300.831 738.002 300.972 738.087C301.112 738.172 301.226 738.293 301.302 738.438C301.378 738.583 301.413 738.747 301.404 738.91C301.394 739.074 301.34 739.231 301.247 739.367L294.927 748.567C294.845 748.687 294.735 748.786 294.605 748.854C294.476 748.922 294.333 748.957 294.187 748.957V748.957Z" fill="#FEF3F9"/>
<path d="M338.807 748.957H309.937C309.776 748.958 309.618 748.917 309.479 748.836C309.34 748.756 309.226 748.639 309.148 748.498C309.07 748.358 309.032 748.199 309.037 748.038C309.042 747.878 309.09 747.722 309.177 747.587L314.887 738.387C314.965 738.255 315.076 738.146 315.21 738.071C315.343 737.995 315.494 737.956 315.647 737.957H343.127C343.277 737.958 343.426 737.996 343.558 738.07C343.689 738.143 343.801 738.248 343.881 738.375C343.962 738.503 344.009 738.648 344.019 738.799C344.029 738.949 344 739.1 343.937 739.237L339.617 748.457C339.543 748.608 339.428 748.735 339.284 748.824C339.141 748.912 338.975 748.958 338.807 748.957V748.957Z" fill="#FEF3F9"/>
<path d="M234.297 765.797H203.297C203.117 765.796 202.942 765.742 202.794 765.641C202.645 765.54 202.53 765.397 202.464 765.231C202.397 765.064 202.382 764.881 202.42 764.706C202.458 764.531 202.547 764.371 202.677 764.247L214.327 753.247C214.494 753.087 214.716 752.997 214.947 752.997H244.227C244.401 752.999 244.57 753.052 244.715 753.147C244.86 753.243 244.974 753.379 245.045 753.537C245.115 753.696 245.139 753.872 245.112 754.044C245.086 754.215 245.012 754.376 244.897 754.507L234.897 765.507C234.741 765.676 234.527 765.78 234.297 765.797V765.797Z" fill="#FEF3F9"/>
<path d="M282.617 765.797H251.447C251.275 765.797 251.107 765.748 250.962 765.656C250.817 765.564 250.702 765.432 250.629 765.277C250.557 765.121 250.53 764.948 250.553 764.778C250.575 764.608 250.646 764.448 250.757 764.317L260.007 753.317C260.09 753.213 260.195 753.13 260.314 753.073C260.433 753.015 260.564 752.986 260.697 752.987H290.227C290.392 752.987 290.553 753.033 290.694 753.118C290.836 753.204 290.951 753.326 291.028 753.472C291.105 753.617 291.141 753.781 291.132 753.946C291.123 754.111 291.069 754.27 290.977 754.407L283.397 765.407C283.311 765.533 283.194 765.635 283.058 765.704C282.921 765.772 282.769 765.804 282.617 765.797V765.797Z" fill="#FEF3F9"/>
<path d="M330.907 765.797H299.447C299.286 765.798 299.128 765.757 298.989 765.676C298.85 765.596 298.736 765.479 298.658 765.338C298.58 765.198 298.542 765.039 298.547 764.878C298.552 764.718 298.6 764.562 298.687 764.426L305.527 753.426C305.607 753.294 305.72 753.185 305.855 753.109C305.99 753.034 306.142 752.995 306.297 752.996H336.037C336.189 752.998 336.338 753.037 336.471 753.111C336.604 753.184 336.717 753.29 336.798 753.418C336.88 753.547 336.928 753.693 336.938 753.845C336.948 753.997 336.92 754.148 336.857 754.287L331.677 765.287C331.608 765.434 331.499 765.559 331.363 765.649C331.228 765.739 331.07 765.79 330.907 765.797V765.797Z" fill="#FEF3F9"/>
<path d="M383.447 748.957H354.447C354.3 748.957 354.155 748.921 354.025 748.853C353.895 748.785 353.784 748.685 353.701 748.564C353.618 748.443 353.566 748.303 353.55 748.157C353.533 748.011 353.553 747.863 353.607 747.727L357.317 738.517C357.382 738.35 357.496 738.207 357.644 738.107C357.793 738.007 357.968 737.955 358.147 737.957H385.777C385.914 737.955 386.05 737.986 386.174 738.046C386.298 738.105 386.407 738.192 386.492 738.301C386.577 738.409 386.636 738.535 386.664 738.669C386.693 738.804 386.69 738.943 386.657 739.077L384.337 748.277C384.287 748.474 384.172 748.648 384.01 748.772C383.849 748.895 383.65 748.961 383.447 748.957V748.957Z" fill="#FEF3F9"/>
<path d="M523.707 765.797H347.597C347.45 765.797 347.305 765.762 347.175 765.693C347.045 765.625 346.933 765.525 346.851 765.404C346.768 765.283 346.716 765.143 346.699 764.997C346.683 764.851 346.703 764.703 346.757 764.567L351.197 753.567C351.264 753.399 351.38 753.255 351.53 753.154C351.679 753.052 351.856 752.997 352.037 752.997H519.267C519.446 752.997 519.622 753.051 519.77 753.153C519.918 753.255 520.032 753.399 520.097 753.567L524.537 764.567C524.593 764.702 524.614 764.85 524.6 764.996C524.585 765.142 524.534 765.283 524.452 765.404C524.37 765.526 524.259 765.626 524.128 765.694C523.998 765.763 523.853 765.798 523.707 765.797V765.797Z" fill="#FEF3F9"/>
<path d="M427.947 748.957H398.847C398.715 748.957 398.584 748.929 398.464 748.873C398.344 748.818 398.238 748.736 398.153 748.635C398.068 748.534 398.007 748.415 397.973 748.288C397.939 748.16 397.933 748.027 397.957 747.897L399.657 738.697C399.694 738.488 399.804 738.3 399.967 738.165C400.13 738.029 400.335 737.956 400.547 737.957H428.257C428.377 737.956 428.497 737.981 428.608 738.028C428.719 738.075 428.82 738.144 428.904 738.231C428.988 738.317 429.054 738.42 429.097 738.533C429.14 738.646 429.161 738.766 429.157 738.887L428.847 748.087C428.841 748.321 428.744 748.544 428.575 748.706C428.407 748.869 428.181 748.959 427.947 748.957Z" fill="#FEF3F9"/>
<path d="M472.447 748.957H443.347C443.112 748.957 442.887 748.866 442.717 748.704C442.547 748.542 442.447 748.321 442.437 748.087L442.137 738.887C442.133 738.766 442.153 738.646 442.196 738.533C442.24 738.42 442.306 738.317 442.389 738.231C442.473 738.144 442.574 738.075 442.685 738.028C442.796 737.981 442.916 737.956 443.037 737.957H470.747C470.958 737.957 471.162 738.032 471.325 738.167C471.487 738.302 471.597 738.489 471.637 738.697L473.337 747.897C473.36 748.027 473.355 748.16 473.321 748.288C473.287 748.415 473.225 748.534 473.14 748.635C473.055 748.736 472.949 748.818 472.829 748.873C472.709 748.929 472.579 748.957 472.447 748.957V748.957Z" fill="#FEF3F9"/>
<path d="M516.927 748.957H487.927C487.725 748.958 487.529 748.892 487.369 748.769C487.21 748.645 487.096 748.472 487.047 748.277L484.737 739.077C484.703 738.944 484.701 738.806 484.729 738.672C484.757 738.538 484.815 738.412 484.899 738.304C484.983 738.197 485.09 738.109 485.213 738.049C485.335 737.989 485.47 737.957 485.607 737.957H513.237C513.417 737.955 513.593 738.008 513.743 738.108C513.892 738.208 514.009 738.35 514.077 738.517L517.777 747.727C517.834 747.864 517.855 748.013 517.839 748.161C517.824 748.309 517.771 748.451 517.687 748.573C517.602 748.695 517.488 748.794 517.356 748.861C517.223 748.928 517.075 748.961 516.927 748.957Z" fill="#FEF3F9"/>
<path d="M561.357 748.957H532.497C532.326 748.957 532.158 748.909 532.013 748.819C531.868 748.729 531.752 748.6 531.677 748.447L527.357 739.237C527.293 739.099 527.264 738.948 527.274 738.796C527.285 738.645 527.333 738.499 527.415 738.371C527.496 738.243 527.609 738.138 527.742 738.066C527.876 737.993 528.025 737.956 528.177 737.957H555.647C555.801 737.957 555.952 737.997 556.087 738.072C556.222 738.147 556.335 738.255 556.417 738.387L562.127 747.587C562.21 747.723 562.256 747.88 562.259 748.04C562.262 748.2 562.222 748.358 562.144 748.498C562.065 748.637 561.951 748.753 561.813 748.834C561.674 748.915 561.517 748.957 561.357 748.957V748.957Z" fill="#FEF3F9"/>
<path d="M605.767 748.957H577.117C576.97 748.959 576.826 748.925 576.697 748.856C576.567 748.788 576.457 748.689 576.377 748.567L570.047 739.367C569.953 739.231 569.899 739.072 569.89 738.908C569.88 738.743 569.916 738.579 569.994 738.434C570.071 738.288 570.187 738.167 570.328 738.083C570.47 737.999 570.632 737.955 570.797 737.957H598.047C598.179 737.958 598.31 737.987 598.431 738.042C598.552 738.097 598.659 738.177 598.747 738.277L606.447 747.457C606.563 747.587 606.639 747.748 606.665 747.92C606.692 748.093 606.668 748.269 606.596 748.428C606.524 748.587 606.407 748.722 606.26 748.816C606.112 748.909 605.941 748.958 605.767 748.957V748.957Z" fill="#FEF3F9"/>
<path d="M613.867 758.617H583.747C583.601 758.615 583.459 758.578 583.33 758.51C583.201 758.443 583.091 758.345 583.007 758.227L580.367 754.387C580.275 754.251 580.221 754.092 580.212 753.929C580.203 753.765 580.238 753.601 580.313 753.456C580.389 753.31 580.503 753.188 580.643 753.102C580.782 753.016 580.943 752.969 581.107 752.967H610.647C610.779 752.968 610.909 752.999 611.028 753.056C611.147 753.113 611.253 753.195 611.337 753.297L614.557 757.137C614.667 757.268 614.738 757.428 614.761 757.598C614.783 757.768 614.757 757.941 614.684 758.097C614.612 758.252 614.496 758.384 614.352 758.476C614.207 758.568 614.038 758.617 613.867 758.617V758.617Z" fill="#FEF3F9"/>
<path d="M619.887 765.797H588.687C588.541 765.798 588.397 765.763 588.268 765.695C588.139 765.627 588.028 765.528 587.947 765.407L584.947 761.117C584.854 760.981 584.8 760.824 584.79 760.66C584.78 760.497 584.816 760.333 584.892 760.188C584.968 760.043 585.082 759.922 585.222 759.837C585.362 759.752 585.523 759.707 585.687 759.707H616.237C616.368 759.706 616.498 759.735 616.618 759.79C616.737 759.845 616.842 759.926 616.927 760.027L620.527 764.317C620.635 764.445 620.706 764.6 620.73 764.766C620.755 764.932 620.732 765.101 620.666 765.255C620.599 765.409 620.491 765.541 620.354 765.637C620.216 765.732 620.054 765.788 619.887 765.797V765.797Z" fill="#FEF3F9"/>
<path d="M667.947 765.797H637.007C636.881 765.799 636.756 765.774 636.64 765.724C636.525 765.674 636.421 765.6 636.337 765.507L632.447 761.217C632.332 761.086 632.257 760.925 632.231 760.754C632.205 760.582 632.228 760.406 632.299 760.247C632.369 760.089 632.484 759.953 632.629 759.857C632.774 759.762 632.943 759.709 633.117 759.707H663.447C663.678 759.707 663.9 759.797 664.067 759.957L668.597 764.247C668.728 764.372 668.819 764.535 668.856 764.714C668.893 764.892 668.875 765.077 668.805 765.245C668.734 765.413 668.614 765.556 668.461 765.654C668.308 765.753 668.129 765.802 667.947 765.797V765.797Z" fill="#FEF3F9"/>
<path d="M571.807 765.797H540.447C540.276 765.797 540.108 765.749 539.963 765.659C539.818 765.569 539.702 765.44 539.627 765.287L537.627 760.987C537.563 760.85 537.535 760.699 537.544 760.549C537.554 760.398 537.601 760.253 537.682 760.125C537.763 759.998 537.874 759.893 538.006 759.82C538.138 759.746 538.286 759.708 538.437 759.707H569.147C569.3 759.707 569.45 759.746 569.585 759.819C569.719 759.892 569.833 759.998 569.917 760.127L572.577 764.427C572.66 764.563 572.706 764.72 572.709 764.88C572.712 765.04 572.672 765.198 572.594 765.338C572.515 765.477 572.401 765.593 572.263 765.674C572.124 765.755 571.967 765.797 571.807 765.797V765.797Z" fill="#FEF3F9"/>
<path d="M650.157 748.957H621.767C621.641 748.959 621.516 748.934 621.4 748.884C621.284 748.834 621.181 748.76 621.097 748.667L612.767 739.467C612.648 739.337 612.569 739.176 612.54 739.003C612.512 738.83 612.534 738.652 612.606 738.492C612.677 738.331 612.793 738.195 612.941 738.1C613.089 738.005 613.261 737.955 613.437 737.957H640.437C640.668 737.957 640.89 738.047 641.057 738.207L650.777 747.407C650.906 747.531 650.996 747.691 651.034 747.866C651.072 748.042 651.056 748.224 650.99 748.391C650.923 748.557 650.808 748.7 650.66 748.801C650.511 748.902 650.336 748.956 650.157 748.957V748.957Z" fill="#FEF3F9"/>
<path d="M103.537 274.157C91.6265 274.157 86.9265 279.077 86.9265 289.657C86.9265 290.657 85.0766 290.657 85.0766 289.657C85.0766 279.077 81.3065 274.157 68.4565 274.157C67.4565 274.157 67.4565 272.307 68.4565 272.307C81.7065 272.307 85.0766 266.167 85.0766 256.817C85.0766 255.817 86.9265 255.817 86.9265 256.817C86.9265 267.957 91.4365 272.307 103.537 272.307C104.497 272.307 104.497 274.157 103.537 274.157Z" fill="#FBF3FE"/>
<path d="M192.757 193.087C174.987 193.087 167.967 200.427 167.967 216.217C167.967 217.677 165.207 217.677 165.207 216.217C165.207 200.427 159.587 193.087 140.417 193.087C138.987 193.087 138.987 190.317 140.417 190.317C160.177 190.317 165.207 181.167 165.207 167.217C165.207 165.757 167.967 165.757 167.967 167.217C167.967 183.837 174.697 190.317 192.757 190.317C194.187 190.317 194.187 193.087 192.757 193.087Z" fill="#FBF3FE"/>
<path d="M176.217 364.317C162.627 364.317 157.217 369.937 157.217 382.017C157.217 383.127 155.107 383.127 155.107 382.017C155.107 369.937 150.807 364.317 136.107 364.317C135.017 364.317 135.017 362.197 136.107 362.197C151.227 362.197 155.107 355.197 155.107 344.517C155.107 343.407 157.217 343.407 157.217 344.517C157.217 357.237 162.367 362.197 176.217 362.197C177.317 362.197 177.317 364.317 176.217 364.317Z" fill="#FBF3FE"/>
<path d="M285.047 349.357C284.86 349.323 284.68 349.255 284.517 349.157C281.617 347.527 278.737 345.737 275.957 343.837C275.731 343.715 275.533 343.546 275.377 343.343C275.22 343.14 275.108 342.905 275.047 342.656C274.987 342.406 274.98 342.147 275.027 341.894C275.073 341.642 275.172 341.402 275.318 341.19C275.463 340.979 275.651 340.8 275.87 340.666C276.089 340.532 276.334 340.445 276.588 340.412C276.843 340.378 277.102 340.399 277.348 340.472C277.594 340.545 277.822 340.669 278.017 340.837C280.717 342.677 283.507 344.407 286.307 345.997C286.695 346.204 286.995 346.546 287.151 346.958C287.307 347.37 287.308 347.824 287.154 348.237C287 348.65 286.702 348.993 286.314 349.202C285.927 349.412 285.477 349.474 285.047 349.377V349.357ZM265.747 335.757C265.444 335.696 265.161 335.558 264.927 335.357C261.414 332.328 258.06 329.12 254.877 325.747C254.701 325.574 254.562 325.368 254.468 325.14C254.374 324.913 254.326 324.669 254.329 324.422C254.331 324.176 254.383 323.933 254.482 323.707C254.58 323.482 254.724 323.278 254.903 323.109C255.082 322.94 255.293 322.809 255.524 322.724C255.755 322.638 256.001 322.6 256.247 322.612C256.493 322.624 256.734 322.686 256.956 322.793C257.177 322.9 257.375 323.051 257.537 323.237C260.634 326.513 263.895 329.63 267.307 332.577C267.614 332.841 267.825 333.199 267.906 333.596C267.987 333.993 267.935 334.406 267.756 334.77C267.578 335.133 267.284 335.427 266.92 335.606C266.556 335.785 266.144 335.838 265.747 335.757V335.757ZM246.897 315.877C246.472 315.786 246.093 315.549 245.827 315.207C243.037 311.647 240.327 307.847 237.747 303.927C237.482 303.519 237.389 303.024 237.489 302.548C237.59 302.073 237.875 301.657 238.282 301.392C238.689 301.126 239.185 301.034 239.66 301.134C240.136 301.234 240.552 301.519 240.817 301.927C243.327 305.767 245.987 309.487 248.707 312.927C249.004 313.309 249.138 313.794 249.08 314.275C249.022 314.756 248.777 315.195 248.397 315.497C248.189 315.664 247.947 315.784 247.688 315.85C247.43 315.916 247.16 315.925 246.897 315.877V315.877ZM231.847 292.957C231.588 292.905 231.343 292.796 231.13 292.639C230.918 292.481 230.743 292.279 230.617 292.047C228.427 288.097 226.327 283.947 224.347 279.697C224.225 279.477 224.15 279.234 224.125 278.984C224.101 278.734 224.129 278.482 224.207 278.243C224.284 278.004 224.41 277.783 224.577 277.595C224.744 277.407 224.947 277.255 225.175 277.149C225.403 277.043 225.65 276.985 225.901 276.979C226.153 276.973 226.402 277.018 226.635 277.113C226.868 277.207 227.079 277.349 227.255 277.528C227.431 277.708 227.567 277.922 227.657 278.157C229.657 282.327 231.657 286.407 233.817 290.277C233.99 290.585 234.07 290.937 234.047 291.291C234.024 291.644 233.899 291.983 233.687 292.266C233.476 292.55 233.186 292.766 232.854 292.888C232.523 293.011 232.162 293.035 231.817 292.957H231.847ZM220.237 268.107C219.939 268.042 219.662 267.905 219.43 267.708C219.198 267.511 219.019 267.26 218.907 266.977C217.247 262.747 215.677 258.367 214.237 253.977C214.086 253.515 214.124 253.012 214.344 252.579C214.563 252.146 214.945 251.818 215.407 251.667C215.868 251.515 216.371 251.554 216.804 251.773C217.237 251.993 217.566 252.375 217.717 252.837C219.137 257.177 220.717 261.487 222.307 265.647C222.489 266.095 222.486 266.597 222.298 267.043C222.111 267.489 221.754 267.843 221.307 268.027C220.964 268.15 220.594 268.178 220.237 268.107V268.107ZM128.847 248.957C128.367 248.882 127.936 248.62 127.649 248.228C127.362 247.836 127.243 247.347 127.317 246.867C127.391 246.387 127.653 245.956 128.045 245.669C128.437 245.382 128.927 245.262 129.407 245.337C131.197 245.527 132.967 245.697 134.727 245.847C137.477 246.087 140.257 246.277 142.977 246.397C143.226 246.393 143.474 246.44 143.705 246.535C143.935 246.63 144.144 246.772 144.318 246.951C144.492 247.129 144.627 247.342 144.716 247.575C144.805 247.808 144.845 248.057 144.834 248.306C144.823 248.556 144.761 248.8 144.653 249.025C144.544 249.249 144.39 249.449 144.201 249.612C144.012 249.775 143.792 249.898 143.554 249.972C143.316 250.047 143.065 250.072 142.817 250.047C140.037 249.927 137.207 249.737 134.407 249.497C132.627 249.337 130.837 249.167 129.037 248.977L128.847 248.957ZM156.247 250.127C155.809 250.034 155.42 249.785 155.153 249.425C154.886 249.065 154.761 248.621 154.8 248.175C154.84 247.729 155.041 247.312 155.367 247.005C155.693 246.698 156.119 246.52 156.567 246.507C161.087 246.377 165.647 246.077 170.117 245.617C170.357 245.589 170.601 245.609 170.833 245.676C171.066 245.743 171.283 245.855 171.472 246.007C171.661 246.158 171.817 246.346 171.933 246.558C172.049 246.77 172.122 247.004 172.147 247.244C172.172 247.485 172.149 247.728 172.08 247.96C172.01 248.192 171.895 248.408 171.742 248.595C171.588 248.782 171.399 248.937 171.186 249.05C170.972 249.164 170.738 249.234 170.497 249.257C165.937 249.727 161.287 250.037 156.667 250.167C156.526 250.168 156.385 250.155 156.247 250.127V250.127ZM183.517 247.287C183.102 247.204 182.728 246.98 182.459 246.653C182.19 246.325 182.043 245.915 182.043 245.492C182.043 245.068 182.19 244.658 182.459 244.33C182.728 244.003 183.102 243.779 183.517 243.697C187.967 242.887 192.427 241.887 196.757 240.697C196.989 240.635 197.232 240.62 197.47 240.651C197.708 240.683 197.938 240.762 198.146 240.883C198.354 241.003 198.536 241.164 198.682 241.355C198.828 241.546 198.935 241.764 198.997 241.997C199.059 242.229 199.074 242.471 199.042 242.71C199.01 242.948 198.932 243.178 198.811 243.386C198.69 243.594 198.53 243.776 198.339 243.922C198.147 244.068 197.929 244.175 197.697 244.237C193.267 245.417 188.697 246.427 184.167 247.237C183.955 247.293 183.735 247.31 183.517 247.287V247.287ZM211.717 242.037C211.383 241.967 211.075 241.806 210.827 241.571C210.58 241.336 210.403 241.037 210.317 240.707C210.317 240.567 210.237 240.427 210.207 240.287C209.859 240.257 209.527 240.127 209.252 239.912C208.977 239.697 208.77 239.407 208.657 239.077C208.522 238.697 208.517 238.283 208.642 237.899C208.767 237.516 209.014 237.185 209.347 236.957C208.537 233.677 207.807 230.417 207.167 227.237C207.12 227.001 207.119 226.758 207.166 226.522C207.212 226.286 207.305 226.062 207.438 225.862C207.571 225.662 207.743 225.49 207.942 225.356C208.142 225.222 208.366 225.129 208.602 225.082C208.838 225.034 209.08 225.034 209.316 225.08C209.552 225.127 209.777 225.219 209.977 225.353C210.177 225.486 210.349 225.657 210.483 225.857C210.616 226.057 210.71 226.281 210.757 226.517C211.357 229.517 212.037 232.517 212.757 235.647C215.987 234.437 219.197 233.117 222.337 231.717C222.558 231.608 222.798 231.544 223.044 231.531C223.29 231.517 223.536 231.553 223.768 231.637C223.999 231.72 224.212 231.85 224.392 232.017C224.573 232.185 224.717 232.387 224.818 232.612C224.918 232.837 224.972 233.08 224.976 233.326C224.98 233.572 224.935 233.817 224.842 234.045C224.75 234.273 224.612 234.481 224.438 234.654C224.263 234.828 224.056 234.965 223.827 235.057C220.497 236.547 217.087 237.937 213.667 239.217C213.667 239.397 213.757 239.587 213.807 239.767C213.869 239.999 213.884 240.241 213.852 240.48C213.821 240.718 213.742 240.948 213.621 241.156C213.501 241.364 213.34 241.546 213.149 241.692C212.958 241.838 212.739 241.945 212.507 242.007C212.249 242.075 211.979 242.085 211.717 242.037V242.037ZM235.037 229.087C234.778 229.03 234.535 228.918 234.323 228.759C234.11 228.601 233.935 228.399 233.807 228.167C233.575 227.742 233.52 227.243 233.655 226.778C233.79 226.313 234.103 225.921 234.527 225.687C238.477 223.527 242.387 221.167 246.147 218.687C246.552 218.449 247.034 218.377 247.491 218.484C247.948 218.592 248.347 218.871 248.604 219.264C248.861 219.658 248.957 220.135 248.872 220.597C248.787 221.059 248.527 221.471 248.147 221.747C244.297 224.277 240.307 226.687 236.267 228.897C235.892 229.102 235.457 229.169 235.037 229.087V229.087ZM206.387 215.087C206.014 215.01 205.674 214.818 205.416 214.538C205.158 214.258 204.994 213.905 204.947 213.527C204.357 208.857 203.947 204.207 203.777 199.697C203.757 199.211 203.931 198.738 204.26 198.381C204.589 198.023 205.047 197.811 205.532 197.792C206.017 197.772 206.491 197.945 206.848 198.275C207.205 198.604 207.417 199.061 207.437 199.547C207.617 203.957 207.997 208.547 208.577 213.067C208.625 213.541 208.486 214.016 208.189 214.39C207.892 214.764 207.46 215.006 206.987 215.067C206.792 215.122 206.589 215.142 206.387 215.127V215.087ZM257.917 213.957C257.576 213.886 257.262 213.719 257.012 213.476C256.762 213.233 256.587 212.923 256.507 212.584C256.427 212.245 256.446 211.889 256.561 211.56C256.676 211.231 256.883 210.942 257.157 210.727C260.687 207.957 264.157 204.997 267.487 201.937C267.662 201.766 267.87 201.633 268.097 201.544C268.325 201.455 268.568 201.413 268.812 201.42C269.057 201.427 269.297 201.482 269.52 201.583C269.742 201.684 269.942 201.829 270.107 202.009C270.273 202.188 270.401 202.399 270.484 202.629C270.567 202.859 270.602 203.103 270.589 203.347C270.576 203.591 270.514 203.83 270.408 204.05C270.301 204.27 270.151 204.466 269.967 204.627C266.577 207.757 263.017 210.777 259.417 213.627C259.208 213.792 258.966 213.911 258.707 213.975C258.448 214.038 258.179 214.046 257.917 213.997V213.957ZM205.297 187.697C204.868 187.608 204.486 187.369 204.22 187.022C203.953 186.675 203.821 186.243 203.847 185.807C204.085 181.174 204.573 176.557 205.307 171.977C205.345 171.74 205.429 171.513 205.554 171.309C205.68 171.105 205.844 170.928 206.038 170.788C206.233 170.647 206.453 170.547 206.686 170.492C206.919 170.437 207.161 170.428 207.397 170.467C207.638 170.495 207.87 170.573 208.08 170.696C208.289 170.818 208.471 170.983 208.614 171.179C208.757 171.375 208.857 171.599 208.909 171.836C208.962 172.073 208.964 172.318 208.917 172.557C208.206 177.012 207.731 181.501 207.497 186.007C207.485 186.247 207.427 186.482 207.324 186.699C207.221 186.916 207.076 187.111 206.897 187.272C206.719 187.432 206.51 187.556 206.284 187.636C206.057 187.716 205.817 187.75 205.577 187.737L205.297 187.697ZM278.057 195.457C277.731 195.391 277.429 195.235 277.187 195.007C276.833 194.677 276.623 194.221 276.604 193.737C276.586 193.254 276.759 192.782 277.087 192.427C280.137 189.127 283.087 185.657 285.907 182.107C286.049 181.901 286.232 181.727 286.444 181.595C286.656 181.463 286.893 181.375 287.14 181.338C287.387 181.301 287.639 181.315 287.88 181.379C288.122 181.443 288.348 181.555 288.544 181.71C288.74 181.865 288.903 182.058 289.022 182.277C289.14 182.497 289.213 182.739 289.235 182.988C289.257 183.237 289.227 183.488 289.149 183.725C289.07 183.962 288.943 184.18 288.777 184.367C285.917 187.997 282.887 191.547 279.777 194.907C279.563 195.14 279.292 195.313 278.99 195.41C278.688 195.506 278.367 195.522 278.057 195.457V195.457ZM209.707 160.757H209.577C209.112 160.622 208.718 160.309 208.483 159.885C208.247 159.462 208.187 158.963 208.317 158.497L208.477 157.947C209.728 153.65 211.278 149.446 213.117 145.367C213.326 144.942 213.692 144.615 214.137 144.455C214.582 144.294 215.072 144.312 215.504 144.505C215.936 144.697 216.276 145.05 216.454 145.489C216.632 145.927 216.633 146.417 216.457 146.857C214.69 150.789 213.196 154.838 211.987 158.977L211.837 159.487C211.696 159.918 211.401 160.283 211.008 160.51C210.614 160.737 210.151 160.81 209.707 160.717V160.757ZM295.057 173.947C294.826 173.896 294.606 173.804 294.407 173.677C294.207 173.543 294.036 173.371 293.903 173.171C293.77 172.97 293.677 172.746 293.631 172.51C293.584 172.274 293.585 172.032 293.632 171.796C293.68 171.56 293.773 171.336 293.907 171.137C296.417 167.407 298.827 163.527 301.067 159.597C301.183 159.382 301.34 159.193 301.53 159.04C301.72 158.887 301.939 158.773 302.173 158.706C302.407 158.639 302.653 158.619 302.895 158.648C303.137 158.677 303.371 158.754 303.583 158.875C303.795 158.995 303.981 159.157 304.129 159.35C304.278 159.544 304.386 159.765 304.448 160.001C304.51 160.237 304.524 160.483 304.489 160.724C304.455 160.965 304.372 161.197 304.247 161.407C301.957 165.407 299.507 169.407 296.947 173.177C296.739 173.471 296.448 173.697 296.112 173.827C295.776 173.957 295.409 173.985 295.057 173.907V173.947ZM220.857 135.757C220.645 135.714 220.443 135.637 220.257 135.527C219.847 135.269 219.554 134.86 219.444 134.388C219.334 133.916 219.414 133.42 219.667 133.007C222.116 129.042 224.828 125.247 227.787 121.647C228.098 121.281 228.539 121.052 229.017 121.009C229.495 120.966 229.97 121.113 230.341 121.417C230.712 121.721 230.949 122.158 231.001 122.635C231.052 123.112 230.914 123.59 230.617 123.967C227.762 127.455 225.142 131.129 222.777 134.967C222.57 135.271 222.276 135.506 221.933 135.64C221.591 135.773 221.215 135.8 220.857 135.717V135.757ZM308.647 150.137C308.502 150.108 308.36 150.061 308.227 149.997C307.789 149.787 307.453 149.412 307.292 148.955C307.131 148.497 307.158 147.994 307.367 147.557L308.367 145.507C309.921 142.167 311.111 138.67 311.917 135.077C312.02 134.608 312.303 134.199 312.706 133.937C313.108 133.675 313.597 133.581 314.067 133.677V133.677C314.301 133.73 314.523 133.828 314.719 133.967C314.916 134.106 315.082 134.282 315.211 134.486C315.339 134.689 315.426 134.916 315.466 135.153C315.507 135.39 315.5 135.632 315.447 135.867C314.585 139.716 313.311 143.46 311.647 147.037L310.647 149.127C310.466 149.485 310.173 149.775 309.811 149.95C309.45 150.125 309.041 150.177 308.647 150.097V150.137ZM238.267 114.647C237.881 114.575 237.529 114.378 237.267 114.087C237.102 113.904 236.975 113.69 236.894 113.458C236.814 113.225 236.781 112.979 236.798 112.733C236.815 112.488 236.881 112.248 236.992 112.029C237.104 111.809 237.258 111.615 237.447 111.457C240.903 108.306 244.616 105.449 248.547 102.917C248.957 102.657 249.453 102.571 249.927 102.676C250.401 102.781 250.814 103.068 251.077 103.477C251.206 103.679 251.295 103.904 251.336 104.14C251.378 104.377 251.373 104.619 251.321 104.853C251.269 105.087 251.171 105.309 251.033 105.505C250.895 105.701 250.72 105.868 250.517 105.997C246.759 108.42 243.21 111.153 239.907 114.167C239.69 114.368 239.427 114.513 239.141 114.59C238.856 114.666 238.555 114.672 238.267 114.607V114.647ZM314.347 123.647C313.959 123.567 313.607 123.363 313.345 123.065C313.083 122.767 312.926 122.392 312.897 121.997C312.603 117.678 311.375 113.474 309.297 109.677C309.179 109.466 309.104 109.235 309.076 108.996C309.048 108.757 309.067 108.515 309.133 108.283C309.198 108.051 309.309 107.835 309.458 107.646C309.607 107.457 309.792 107.299 310.002 107.182C310.212 107.064 310.443 106.989 310.682 106.961C310.921 106.933 311.164 106.952 311.395 107.017C311.627 107.083 311.844 107.193 312.033 107.342C312.222 107.492 312.379 107.676 312.497 107.887C314.81 112.148 316.175 116.859 316.497 121.697C316.52 121.938 316.495 122.181 316.424 122.413C316.352 122.645 316.236 122.86 316.08 123.046C315.925 123.232 315.734 123.385 315.519 123.497C315.304 123.609 315.069 123.676 314.827 123.697C314.664 123.681 314.503 123.647 314.347 123.597V123.647ZM261.347 100.057C260.959 99.9783 260.607 99.7764 260.343 99.4812C260.08 99.1859 259.919 98.8132 259.885 98.419C259.852 98.0247 259.947 97.6301 260.156 97.2943C260.365 96.9585 260.678 96.6997 261.047 96.5566C265.438 94.8354 270.011 93.6209 274.677 92.9365C275.147 92.8878 275.618 93.023 275.991 93.3138C276.364 93.6047 276.61 94.0285 276.677 94.4966C276.744 94.9647 276.628 95.4406 276.352 95.8246C276.076 96.2086 275.662 96.4709 275.197 96.5566C270.808 97.202 266.507 98.3461 262.377 99.9665C262.039 100.087 261.673 100.101 261.327 100.007L261.347 100.057ZM301.107 100.837C300.898 100.791 300.699 100.71 300.517 100.597C296.789 98.372 292.649 96.9263 288.347 96.3465C287.882 96.2609 287.468 95.9986 287.192 95.6146C286.916 95.2306 286.8 94.7546 286.867 94.2866C286.934 93.8185 287.18 93.3947 287.553 93.1039C287.926 92.813 288.397 92.6778 288.867 92.7265C293.667 93.3671 298.287 94.9763 302.447 97.4565C302.818 97.6791 303.099 98.0263 303.239 98.4362C303.378 98.8462 303.368 99.2924 303.21 99.6955C303.051 100.099 302.755 100.432 302.374 100.638C301.992 100.843 301.551 100.906 301.127 100.817L301.107 100.837Z" fill="#8550FC"/>
<path d="M13.7368 212.517L131.047 211.917L129.737 254.757L13.7368 212.517Z" fill="#00675B"/>
<path d="M13.7368 212.517L114.617 225.787L129.737 254.757L13.7368 212.517Z" fill="#009688"/>
<path d="M13.7368 212.517L154.467 183.437L131.047 211.917L13.7368 212.517Z" fill="#009688"/>
<path d="M13.7368 212.517L114.617 225.787L84.1268 257.807L13.7368 212.517Z" fill="#009688"/>
<path d="M720.827 91.4365H628.007C609.561 91.4365 594.607 106.39 594.607 124.837V190.457C594.607 208.903 609.561 223.857 628.007 223.857H720.827C739.273 223.857 754.227 208.903 754.227 190.457V124.837C754.227 106.39 739.273 91.4365 720.827 91.4365Z" fill="#009688"/>
<path d="M747.127 104.266L703.697 147.697C702.947 148.447 702.167 149.156 701.377 149.826C693.871 156.272 684.305 159.816 674.412 159.816C664.519 159.816 654.952 156.272 647.447 149.826C646.657 149.156 645.877 148.447 645.127 147.697L642.057 144.626L601.737 104.266C603.267 102.3 605.011 100.509 606.937 98.9265L647.367 139.316L650.437 142.386C651.175 143.136 651.964 143.834 652.797 144.477C658.875 149.528 666.529 152.293 674.432 152.293C682.335 152.293 689.989 149.528 696.067 144.477C696.889 143.806 697.676 143.096 698.427 142.346L701.497 139.346L741.887 98.9165C743.823 100.504 745.58 102.298 747.127 104.266V104.266Z" fill="white"/>
<path d="M650.447 142.387C651.185 143.136 651.973 143.834 652.807 144.477L647.447 149.827L596.317 200.957C595.363 198.065 594.808 195.058 594.667 192.017L642.057 144.627L647.367 139.317L650.447 142.387Z" fill="white"/>
<path d="M754.157 192.016C754.016 195.058 753.46 198.065 752.507 200.956L701.377 149.826L696.067 144.516C696.889 143.846 697.676 143.135 698.427 142.386L701.497 139.386L706.767 144.656L754.157 192.016Z" fill="white"/>
<path d="M510.997 385.877L445.847 440.877L374.727 390.007L391.697 343.607L395.197 325.897L402.097 290.827L473.457 288.877L476.527 301.367L484.847 335.077L510.997 385.877Z" fill="#F4D37E"/>
<path d="M476.527 301.367C469.307 314.137 449.467 331.367 395.197 325.897L402.097 290.827L473.447 288.877L476.527 301.367Z" fill="#DEB449"/>
<path d="M504.717 198.967C504.717 260.497 475.047 310.387 438.447 310.387C401.847 310.387 372.177 260.457 372.177 198.967C372.177 137.477 401.847 119.197 438.447 119.197C475.047 119.197 504.717 137.457 504.717 198.967Z" fill="#F4D37E"/>
<path d="M471.127 125.457C471.127 125.457 471.367 161.007 439.287 164.147C407.207 167.287 378.007 147.947 370.617 189.937V152.247L406.157 131.337L471.127 125.457Z" fill="#DEB449"/>
<path d="M511.647 146.297C517.647 167.297 501.647 261.127 492.647 280.137C483.647 299.147 463.777 310.137 436.597 310.387C401.917 310.687 390.177 293.567 383.177 283.567C376.177 273.567 375.567 254.357 366.557 182.317C357.547 110.277 414.677 100.597 435.687 100.597C456.697 100.597 466.607 100.277 470.607 114.287C500.557 112.627 505.637 125.287 511.647 146.297ZM445.267 156.697C426.117 165.607 392.207 147.627 379.267 162.207C366.327 176.787 374.267 223.297 378.527 242.807C380.207 250.537 404.927 247.037 418.447 254.167C399.847 271.717 415.707 284.097 436.167 284.097C455.587 284.097 474.007 277.907 461.617 254.167C471.137 243.847 491.557 253.647 495.687 244.877C501.617 232.267 498.307 173.547 498.307 173.547C490.217 171.117 471.587 148.437 471.587 131.437C465.9 142.574 456.629 151.472 445.267 156.697Z" fill="#232323"/>
<path d="M415.697 194.937C415.697 200.177 412.797 204.427 409.217 204.427C405.637 204.427 402.737 200.177 402.737 194.937C402.737 189.697 405.637 185.437 409.217 185.437C412.797 185.437 415.697 189.687 415.697 194.937Z" fill="#232323"/>
<path d="M471.127 194.937C471.127 200.177 468.227 204.427 464.647 204.427C461.067 204.427 458.167 200.177 458.167 194.937C458.167 189.697 461.067 185.437 464.647 185.437C468.227 185.437 471.127 189.687 471.127 194.937Z" fill="#232323"/>
<path d="M418.527 260.457H456.677C456.677 260.457 452.557 276.967 439.147 276.967C425.737 276.967 420.137 267.317 418.527 260.457Z" fill="white"/>
<path d="M437.607 204.457C437.607 204.457 413.257 243.457 437.607 243.397V204.457Z" fill="#DEB449"/>
<path d="M362.447 200.937C361.774 197.177 361.44 193.365 361.447 189.547C361.447 151.267 395.237 126.687 436.917 126.687C478.597 126.687 512.397 151.267 512.397 189.547C512.404 193.365 512.069 197.177 511.397 200.937H520.057C522.117 194.157 523.987 186.937 523.237 179.627C519.587 143.717 489.717 108.997 436.957 108.997C389.307 108.997 351.617 146.457 351.617 184.297C351.617 191.687 351.807 194.157 353.867 200.937H362.447Z" fill="#808285"/>
<path d="M365.787 242.456L358.047 243.276C349.207 244.206 341.247 238.136 340.257 229.706L335.937 192.627C334.937 184.197 341.327 176.626 350.167 175.626L357.907 174.806C360.128 174.524 362.371 175.128 364.15 176.486C365.93 177.845 367.103 179.85 367.417 182.066L373.417 233.336C373.524 234.438 373.41 235.55 373.084 236.607C372.757 237.665 372.222 238.646 371.512 239.495C370.802 240.344 369.93 241.043 368.947 241.551C367.964 242.06 366.89 242.367 365.787 242.456Z" fill="#808285"/>
<path d="M509.447 242.457L517.187 243.277C526.027 244.207 533.997 238.137 534.977 229.707L539.307 192.627C540.307 184.197 533.917 176.627 525.077 175.627L517.337 174.807C515.115 174.527 512.872 175.131 511.092 176.489C509.311 177.847 508.135 179.85 507.817 182.067L501.817 233.337C501.707 234.439 501.818 235.552 502.144 236.61C502.47 237.668 503.004 238.651 503.715 239.501C504.425 240.35 505.298 241.049 506.283 241.557C507.267 242.064 508.343 242.37 509.447 242.457V242.457Z" fill="#808285"/>
<path d="M456.677 105.826C456.677 105.826 451.507 122.776 421.677 122.826C391.847 122.876 382.447 125.456 382.447 125.456C382.447 125.456 404.517 101.756 456.677 105.826Z" fill="#232323"/>
<path d="M550.637 489.457C548.637 490.127 546.767 490.747 545.177 491.327C546.117 500.057 547.177 520.467 548.267 539.507L548.397 541.687C548.697 546.967 549.027 552.107 549.347 556.817C549.927 565.437 550.507 572.667 551.107 576.747C552.867 586.747 554.287 597.197 555.427 606.937C558.287 631.547 559.317 652.017 559.317 652.017C554.567 651.887 324.457 652.017 324.457 652.017L325.637 612.267L326.437 586.057L327.187 561.207L329.237 492.457C325.955 491.514 322.614 490.789 319.237 490.287C302.467 487.387 272.837 484.227 261.507 483.067L256.927 482.587C256.927 482.587 282.387 376.317 298.037 359.487C326.497 341.577 356.037 334.587 395.037 325.837C395.037 325.837 392.607 340.567 399.847 353.247C417.327 383.737 475.117 378.317 482.847 344.027C484.697 335.817 482.567 325.857 482.567 325.857C482.567 325.857 562.567 342.457 578.047 360.967C590.197 381.457 612.447 472.077 612.447 472.077C612.447 472.077 610.257 472.637 606.627 473.607C594.577 476.787 566.547 484.267 550.637 489.457Z" fill="#00675B"/>
<path d="M528.967 426.517L545.167 491.347L548.387 541.687L528.967 488.947V426.517Z" fill="#1A0845"/>
<path d="M340.027 527.937L331.357 564.997L326.437 586.067L327.187 561.217L329.237 492.477L340.027 421.627V527.937Z" fill="#1A0845"/>
<path d="M290.377 695.947C290.377 695.947 208.727 700.327 190.017 708.697C171.307 717.067 192.847 759.457 205.927 761.237C215.497 762.547 296.467 754.367 307.927 742.557L290.377 695.947Z" fill="#232323"/>
<path d="M290.377 695.947C290.377 695.947 254.947 703.487 248.377 712.087C241.807 720.687 240.627 744.087 245.537 745.087C250.447 746.087 256.617 753.747 307.947 742.577L290.377 695.947Z" fill="#232323"/>
<path d="M289.447 695.527L307.567 743.357L643.907 681.767C676.707 674.527 733.527 644.467 726.207 618.667C717.317 587.347 691.687 567.347 659.347 576.427L289.447 695.527Z" fill="#0B53FF"/>
<path d="M331.357 564.997L327.187 561.217L305.607 541.717L319.237 490.307C302.467 487.407 272.837 484.247 261.507 483.087L248.627 548.827C247.839 552.851 248.291 557.02 249.923 560.782C251.555 564.544 254.29 567.722 257.767 569.897L325.637 612.277L348.637 626.637L366.637 596.857L331.357 564.997Z" fill="#F4D37E"/>
<path d="M622.577 547.777L606.667 473.607C594.577 476.787 566.547 484.267 550.667 489.467L565.447 541.697L549.347 556.827L505.447 597.937L523.957 627.387L555.447 606.947L613.847 569.017C617.278 566.773 619.949 563.543 621.508 559.751C623.066 555.959 623.439 551.784 622.577 547.777Z" fill="#F4D37E"/>
<path d="M595.527 694.876L578.067 742.947L230.067 681.746C197.167 674.956 159.167 648.806 158.587 629.426C157.777 602.606 196.587 568.356 229.067 576.996L595.527 694.876Z" fill="#2175FB"/>
<path d="M595.527 694.876C595.527 694.876 681.467 700.566 700.527 708.176C719.587 715.786 693.747 755.176 680.757 757.526C671.247 759.216 590.017 754.296 578.097 742.946L595.527 694.876Z" fill="#232323"/>
<path d="M595.527 694.876C595.527 694.876 629.427 701.786 636.367 710.116C643.307 718.446 645.367 741.776 640.527 742.946C635.687 744.116 629.807 752.046 578.067 742.946L595.527 694.876Z" fill="#232323"/>
<path d="M566.517 488.977L548.567 630.457H320.857L318.177 609.387L302.897 488.977C302.896 486.883 303.307 484.809 304.107 482.874C304.908 480.938 306.082 479.18 307.562 477.699C309.042 476.218 310.8 475.043 312.735 474.241C314.669 473.439 316.743 473.027 318.837 473.027H550.587C552.681 473.027 554.754 473.439 556.688 474.241C558.622 475.043 560.379 476.218 561.858 477.699C563.338 479.181 564.511 480.939 565.31 482.874C566.11 484.809 566.52 486.883 566.517 488.977Z" fill="#E6E7E8"/>
<path d="M548.537 630.427H320.877C318.386 630.427 316.367 632.446 316.367 634.937V639.287C316.367 641.777 318.386 643.797 320.877 643.797H548.537C551.028 643.797 553.047 641.777 553.047 639.287V634.937C553.047 632.446 551.028 630.427 548.537 630.427Z" fill="#D1D3D4"/>
<path d="M434.707 533.656C433.341 533.661 431.979 533.815 430.647 534.116C430.71 534.678 430.744 535.242 430.747 535.806C430.749 539.675 429.22 543.388 426.494 546.133C423.768 548.878 420.066 550.433 416.197 550.456C416.137 551.056 416.097 551.666 416.097 552.276C416.097 555.957 417.188 559.555 419.233 562.616C421.278 565.676 424.184 568.061 427.585 569.47C430.985 570.878 434.727 571.247 438.337 570.529C441.947 569.811 445.263 568.038 447.866 565.436C450.469 562.833 452.241 559.517 452.959 555.907C453.677 552.297 453.309 548.555 451.9 545.155C450.492 541.754 448.106 538.848 445.046 536.803C441.985 534.758 438.387 533.667 434.707 533.667V533.656Z" fill="#D1D3D4"/>
<g clip-path="url(#clip0_301_92)">
<path d="M433.109 182.076C430.984 181.982 428.758 181.49 426.47 180.214C420.987 177.158 407.161 175.457 403.036 175.457C391.414 175.454 379.973 175.846 369.447 177.463L369.796 185.385C372.805 186.492 373.722 188.558 374.134 191.053C376.033 202.551 378.695 212.329 383.651 216.35C387.171 219.206 391.594 221.694 399.87 221.438C408.686 221.167 418.052 218.729 422.646 213.392C426.68 208.706 430.887 201.497 432.411 193.618C432.985 190.649 435.073 189.336 437.447 189.336C439.821 189.336 441.909 190.649 442.483 193.618C444.006 201.497 448.214 208.706 452.247 213.392C456.842 218.729 466.207 221.167 475.024 221.438C483.3 221.694 487.722 219.206 491.242 216.35C496.199 212.329 498.861 202.551 500.76 191.053C501.172 188.558 502.089 186.492 505.097 185.385L505.447 177.463C494.921 175.846 483.479 175.454 471.858 175.457C467.732 175.457 453.907 177.158 448.424 180.214C446.135 181.49 443.909 181.982 441.784 182.076C438.895 182.203 435.998 182.203 433.109 182.076V182.076ZM399.274 179.449C401.841 179.444 404.441 179.507 406.9 179.469C409.028 179.437 423.69 179.035 426.059 187.867C428.317 196.286 424.967 206.99 417.836 213.041C412.867 217.256 393.313 221.832 385.645 212.792C380.389 206.597 379.277 200.976 378.718 193.183C378.363 188.247 379.625 183.21 387.639 180.648C390.823 179.631 394.995 179.456 399.274 179.449V179.449ZM466.657 179.449C467.266 179.445 467.727 179.465 467.993 179.469C470.452 179.507 473.052 179.444 475.62 179.449C479.898 179.456 484.07 179.631 487.255 180.648C495.268 183.21 496.531 188.247 496.176 193.183C495.616 200.976 494.504 206.597 489.248 212.792C481.58 221.832 462.026 217.256 457.057 213.041C449.926 206.99 446.577 196.286 448.835 187.867C450.908 180.139 462.393 179.471 466.657 179.449V179.449ZM372.88 181.31H378.862V182.738H372.88V181.31ZM496.032 181.31H502.014V182.738H496.032V181.31Z" fill="black"/>
</g>
<path d="M399.314 252.098C407.232 242.267 428.678 242.96 436.926 244.535C449.794 241.699 466.62 244.535 472.559 252.098C477.31 258.148 482.787 273.524 483.447 280.457C468.6 280.457 443.855 265.332 436.926 259.66C431.384 267.222 399.974 280.141 386.447 280.457C387.437 275.1 391.396 261.929 399.314 252.098Z" fill="#232323"/>
<defs>
<clipPath id="clip0_301_92">
<rect width="136" height="46" fill="white" transform="translate(369.447 175.457)"/>
</clipPath>
</defs>
</svg>
